<?xml version="1.0" encoding="UTF-8"?>
<svg xmlns="http://www.w3.org/2000/svg" xmlns:xlink="http://www.w3.org/1999/xlink" width="10px" height="12px" viewBox="0 0 10 11" version="1.1">
<g id="surface1">
<path style=" stroke:none;fill-rule:nonzero;fill:rgb(0%,0%,0%);fill-opacity:1;" d="M 7.855469 2.75 C 7.855469 4.269531 6.578125 5.5 5 5.5 C 3.421875 5.5 2.144531 4.269531 2.144531 2.75 C 2.144531 1.230469 3.421875 0 5 0 C 6.578125 0 7.855469 1.230469 7.855469 2.75 Z M 4.667969 7.71875 L 3.929688 6.53125 L 6.070312 6.53125 L 5.332031 7.71875 L 6.074219 10.378906 L 6.957031 6.914062 C 8.679688 7.171875 10 8.609375 10 10.339844 C 10 10.703125 9.691406 11 9.316406 11 L 0.6875 11 C 0.308594 11 0 10.703125 0 10.339844 C 0 8.609375 1.320312 7.171875 3.042969 6.914062 L 3.925781 10.378906 Z M 4.667969 7.71875 "/>
</g>
</svg>
